<?xml version="1.0" encoding="UTF-8" standalone="no"?>
<!DOCTYPE svg PUBLIC "-//W3C//DTD SVG 1.1//EN" "http://www.w3.org/Graphics/SVG/1.1/DTD/svg11.dtd">
<svg version="1.1" xmlns="http://www.w3.org/2000/svg" xmlns:xlink="http://www.w3.org/1999/xlink" preserveAspectRatio="xMidYMid meet" viewBox="0 0 640 640" width="150" height="150"><defs><path d="M526.67 368.71C526.67 488.42 431.08 585.61 313.33 585.61C195.59 585.61 100 488.42 100 368.71C100 249.01 195.59 151.82 313.33 151.82C431.08 151.82 526.67 249.01 526.67 368.71Z" id="d9SeZ4IE7"></path><path d="M430.74 209.06L431.63 209.15L432.51 209.28L433.37 209.44L434.22 209.63L435.07 209.86L435.89 210.12L436.71 210.41L437.5 210.74L438.29 211.09L439.05 211.47L439.8 211.88L440.53 212.32L441.25 212.79L441.94 213.28L442.61 213.8L443.27 214.34L443.9 214.91L444.51 215.51L445.09 216.12L445.66 216.76L446.2 217.42L446.71 218.1L447.2 218.8L447.66 219.52L448.1 220.25L448.51 221.01L448.88 221.78L449.23 222.57L449.55 223.38L449.84 224.2L450.1 225.04L450.33 225.88L450.52 226.75L450.68 227.62L450.8 228.5L450.9 229.4L450.95 230.31L450.97 231.22L450.97 385.32L450.95 386.24L450.9 387.14L450.81 388.04L450.68 388.92L450.52 389.8L450.33 390.66L450.1 391.51L449.84 392.34L449.55 393.16L449.23 393.97L448.88 394.76L448.51 395.53L448.1 396.29L447.66 397.03L447.2 397.74L446.71 398.44L446.2 399.12L445.66 399.78L445.1 400.42L444.51 401.04L443.9 401.63L443.27 402.2L442.61 402.74L441.94 403.26L441.25 403.75L440.53 404.22L439.8 404.66L439.05 405.07L438.29 405.45L437.5 405.81L436.71 406.13L435.89 406.42L435.07 406.68L434.23 406.91L433.37 407.1L432.51 407.26L431.63 407.39L430.74 407.48L429.84 407.54L428.94 407.56L350.89 407.56L353.08 428.46L353.09 428.58L353.1 428.71L353.11 428.84L353.11 428.96L353.11 429.09L353.11 429.22L353.11 429.34L353.1 429.47L353.09 429.59L353.08 429.72L353.06 429.84L353.05 429.96L353.03 430.09L353.01 430.21L352.98 430.33L352.95 430.45L352.92 430.57L352.89 430.69L352.86 430.81L352.82 430.93L352.78 431.05L352.74 431.17L352.7 431.28L352.65 431.4L352.6 431.51L352.55 431.63L352.5 431.74L352.44 431.85L352.38 431.96L352.32 432.07L352.26 432.18L352.19 432.28L352.13 432.39L352.06 432.49L351.98 432.6L351.91 432.7L351.83 432.8L351.75 432.9L351.67 432.99L351.59 433.09L351.5 433.18L351.42 433.27L351.33 433.36L351.24 433.45L351.15 433.54L351.05 433.62L350.96 433.7L350.86 433.78L350.76 433.86L350.66 433.93L350.56 434L350.46 434.07L350.36 434.14L350.25 434.21L350.14 434.27L350.04 434.33L349.93 434.39L349.82 434.45L349.71 434.5L349.6 434.55L349.48 434.6L349.37 434.65L349.25 434.69L349.14 434.73L349.02 434.77L348.9 434.81L348.78 434.85L348.66 434.88L348.54 434.91L348.42 434.94L348.3 434.96L348.18 434.98L348.06 435L347.93 435.02L347.81 435.04L347.69 435.05L347.56 435.06L347.44 435.06L347.31 435.07L347.18 435.07L284.52 435.07L284.4 435.07L284.27 435.06L284.14 435.06L284.02 435.05L283.9 435.04L283.77 435.02L283.65 435L283.53 434.98L283.4 434.96L283.28 434.94L283.16 434.91L283.04 434.88L282.92 434.85L282.8 434.81L282.69 434.77L282.57 434.74L282.45 434.69L282.34 434.65L282.22 434.6L282.11 434.55L282 434.5L281.89 434.45L281.78 434.39L281.67 434.33L281.56 434.27L281.45 434.21L281.35 434.14L281.24 434.07L281.14 434L281.04 433.93L280.94 433.86L280.84 433.78L280.75 433.7L280.65 433.62L280.56 433.54L280.47 433.45L280.38 433.36L280.29 433.27L280.2 433.18L280.12 433.09L280.03 432.99L279.95 432.9L279.87 432.8L279.8 432.7L279.72 432.6L279.65 432.49L279.58 432.39L279.51 432.28L279.45 432.18L279.38 432.07L279.32 431.96L279.26 431.85L279.21 431.74L279.16 431.63L279.1 431.51L279.05 431.4L279.01 431.28L278.96 431.17L278.92 431.05L278.88 430.93L278.85 430.81L278.81 430.69L278.78 430.57L278.75 430.45L278.72 430.33L278.7 430.21L278.68 430.09L278.66 429.96L278.64 429.84L278.63 429.72L278.62 429.59L278.61 429.47L278.6 429.34L278.6 429.22L278.59 429.09L278.6 428.96L278.6 428.84L278.61 428.71L278.62 428.58L278.63 428.46L280.82 407.56L198.03 407.56L197.12 407.54L196.22 407.48L195.33 407.39L194.46 407.26L193.59 407.1L192.74 406.91L191.9 406.68L191.07 406.42L190.26 406.13L189.46 405.81L188.68 405.45L187.91 405.07L187.16 404.66L186.43 404.22L185.72 403.75L185.02 403.26L184.35 402.74L183.7 402.2L183.07 401.63L182.46 401.04L181.87 400.42L181.31 399.78L180.77 399.12L180.25 398.44L179.76 397.74L179.3 397.03L178.87 396.29L178.46 395.53L178.08 394.76L177.73 393.97L177.41 393.16L177.12 392.34L176.86 391.51L176.64 390.66L176.44 389.8L176.28 388.92L176.16 388.04L176.07 387.14L176.01 386.24L176 385.32L176 231.22L176.01 230.31L176.07 229.4L176.16 228.5L176.28 227.62L176.44 226.75L176.64 225.88L176.86 225.04L177.12 224.2L177.41 223.38L177.73 222.57L178.08 221.78L178.46 221.01L178.87 220.25L179.3 219.52L179.76 218.8L180.25 218.1L180.77 217.42L181.31 216.76L181.87 216.12L182.46 215.51L183.07 214.91L183.7 214.34L184.35 213.8L185.02 213.28L185.72 212.79L186.43 212.32L187.16 211.88L187.91 211.47L188.68 211.09L189.46 210.74L190.26 210.41L191.07 210.12L191.9 209.86L192.74 209.63L193.59 209.44L194.46 209.28L195.33 209.15L196.22 209.06L197.12 209L198.03 208.99L428.94 208.99L429.84 209L430.74 209.06ZM291.11 423.11L340.6 423.11L338.96 407.56L292.74 407.56L291.11 423.11ZM187.85 385.32L187.86 385.74L187.88 386.16L187.92 386.58L187.98 386.99L188.06 387.39L188.14 387.79L188.25 388.18L188.37 388.56L188.5 388.94L188.65 389.32L188.81 389.68L188.99 390.04L189.17 390.39L189.38 390.73L189.59 391.06L189.81 391.38L190.05 391.7L190.3 392L190.56 392.3L190.83 392.58L191.11 392.86L191.41 393.12L191.71 393.37L192.02 393.61L192.34 393.84L192.67 394.05L193.01 394.26L193.35 394.45L193.71 394.62L194.07 394.79L194.44 394.93L194.81 395.07L195.2 395.19L195.58 395.29L195.98 395.38L196.38 395.46L196.78 395.52L197.19 395.56L197.61 395.59L198.03 395.59L428.94 395.59L429.35 395.59L429.77 395.56L430.18 395.52L430.58 395.46L430.98 395.38L431.38 395.29L431.77 395.19L432.15 395.07L432.53 394.93L432.89 394.79L433.26 394.62L433.61 394.45L433.96 394.26L434.29 394.05L434.62 393.84L434.94 393.61L435.25 393.37L435.56 393.12L435.85 392.86L436.13 392.58L436.4 392.3L436.66 392L436.91 391.7L437.15 391.38L437.37 391.06L437.59 390.73L437.79 390.39L437.98 390.04L438.15 389.68L438.31 389.32L438.46 388.94L438.59 388.56L438.71 388.18L438.82 387.79L438.91 387.39L438.98 386.99L439.04 386.58L439.08 386.16L439.11 385.74L439.11 385.32L439.11 378.85L187.85 378.85L187.85 385.32ZM197.61 220.96L197.19 220.98L196.78 221.02L196.38 221.08L195.98 221.16L195.58 221.25L195.2 221.35L194.81 221.47L194.44 221.61L194.07 221.76L193.71 221.92L193.35 222.1L193.01 222.29L192.67 222.49L192.34 222.7L192.02 222.93L191.71 223.17L191.41 223.42L191.11 223.69L190.83 223.96L190.56 224.24L190.3 224.54L190.05 224.84L189.81 225.16L189.59 225.48L189.38 225.81L189.17 226.15L188.99 226.5L188.81 226.86L188.65 227.23L188.5 227.6L188.37 227.98L188.25 228.36L188.14 228.76L188.06 229.15L187.98 229.56L187.92 229.97L187.88 230.38L187.86 230.8L187.85 231.22L187.85 366.88L439.11 366.88L439.11 231.22L439.11 230.8L439.08 230.38L439.04 229.97L438.98 229.56L438.91 229.15L438.82 228.76L438.71 228.36L438.6 227.98L438.46 227.6L438.31 227.23L438.15 226.86L437.98 226.5L437.79 226.15L437.59 225.81L437.37 225.48L437.15 225.16L436.91 224.84L436.66 224.54L436.4 224.24L436.13 223.96L435.85 223.69L435.56 223.42L435.26 223.17L434.94 222.93L434.62 222.7L434.29 222.49L433.96 222.29L433.61 222.1L433.26 221.92L432.89 221.76L432.53 221.61L432.15 221.47L431.77 221.35L431.38 221.25L430.99 221.16L430.59 221.08L430.18 221.02L429.77 220.98L429.36 220.96L428.94 220.95L198.03 220.95L197.61 220.96Z" id="ax5EcYMLv"></path><path d="M412.33 443.45L412.5 443.46L412.66 443.48L412.82 443.5L412.98 443.52L413.14 443.55L413.3 443.59L413.46 443.62L413.61 443.67L413.77 443.71L413.92 443.76L414.07 443.82L414.22 443.88L414.37 443.94L414.51 444.01L414.66 444.08L414.8 444.15L414.94 444.23L415.08 444.31L415.21 444.4L415.35 444.48L415.48 444.58L415.61 444.67L415.73 444.77L415.85 444.88L415.98 444.98L416.09 445.09L416.21 445.21L416.32 445.33L416.43 445.45L416.53 445.57L416.64 445.69L416.74 445.82L416.83 445.96L416.93 446.09L417.01 446.23L417.1 446.37L417.18 446.52L417.26 446.66L428.97 469.39L429.04 469.53L429.1 469.67L429.16 469.82L429.22 469.96L429.28 470.1L429.33 470.25L429.37 470.4L429.42 470.54L429.45 470.69L429.49 470.84L429.52 470.99L429.55 471.14L429.57 471.29L429.59 471.44L429.61 471.59L429.62 471.74L429.63 471.89L429.63 472.05L429.63 472.2L429.63 472.35L429.62 472.5L429.61 472.65L429.6 472.8L429.58 472.95L429.56 473.1L429.53 473.25L429.5 473.4L429.47 473.55L429.43 473.7L429.39 473.85L429.35 473.99L429.3 474.14L429.25 474.28L429.19 474.42L429.13 474.57L429.07 474.71L429 474.85L428.93 474.98L428.85 475.12L428.77 475.26L428.69 475.39L428.61 475.52L428.52 475.65L428.43 475.77L428.33 475.89L428.23 476.01L428.13 476.13L428.03 476.24L427.93 476.35L427.82 476.46L427.71 476.56L427.6 476.66L427.48 476.76L427.36 476.86L427.24 476.95L427.12 477.04L427 477.13L426.87 477.21L426.74 477.29L426.61 477.36L426.48 477.44L426.35 477.51L426.21 477.57L426.08 477.63L425.94 477.69L425.8 477.75L425.65 477.8L425.51 477.85L425.37 477.89L425.22 477.93L425.07 477.97L424.93 478L424.78 478.03L424.63 478.06L424.48 478.08L424.32 478.1L424.17 478.11L424.02 478.12L423.86 478.13L423.71 478.13L203.26 478.13L203.1 478.13L202.95 478.12L202.79 478.11L202.64 478.1L202.49 478.08L202.34 478.06L202.19 478.03L202.04 478L201.89 477.97L201.74 477.93L201.6 477.89L201.45 477.85L201.31 477.8L201.17 477.75L201.03 477.69L200.89 477.63L200.75 477.57L200.62 477.51L200.48 477.44L200.35 477.36L200.22 477.29L200.09 477.21L199.97 477.13L199.84 477.04L199.72 476.95L199.6 476.86L199.48 476.76L199.37 476.66L199.25 476.56L199.14 476.46L199.04 476.35L198.93 476.24L198.83 476.13L198.73 476.01L198.63 475.89L198.54 475.77L198.45 475.65L198.36 475.52L198.27 475.39L198.19 475.26L198.11 475.12L198.04 474.98L197.97 474.85L197.9 474.71L197.83 474.57L197.77 474.42L197.72 474.28L197.67 474.14L197.62 473.99L197.57 473.85L197.53 473.7L197.49 473.55L197.46 473.4L197.43 473.25L197.41 473.1L197.38 472.95L197.37 472.8L197.35 472.65L197.34 472.5L197.33 472.35L197.33 472.2L197.33 472.05L197.34 471.89L197.34 471.74L197.36 471.59L197.37 471.44L197.39 471.29L197.42 471.14L197.44 470.99L197.47 470.84L197.51 470.69L197.55 470.54L197.59 470.4L197.64 470.25L197.69 470.1L197.74 469.96L197.8 469.82L197.86 469.67L197.93 469.53L198 469.39L209.7 446.66L209.78 446.52L209.86 446.37L209.95 446.23L210.04 446.09L210.13 445.96L210.23 445.82L210.33 445.69L210.43 445.57L210.53 445.45L210.64 445.33L210.76 445.21L210.87 445.09L210.99 444.98L211.11 444.88L211.23 444.77L211.36 444.67L211.49 444.58L211.62 444.48L211.75 444.4L211.89 444.31L212.02 444.23L212.16 444.15L212.31 444.08L212.45 444.01L212.59 443.94L212.74 443.88L212.89 443.82L213.04 443.76L213.2 443.71L213.35 443.67L213.51 443.62L213.66 443.59L213.82 443.55L213.98 443.52L214.14 443.5L214.3 443.48L214.47 443.46L214.63 443.45L214.8 443.44L214.96 443.44L412 443.44L412.17 443.44L412.33 443.45ZM213.02 466.17L413.95 466.17L408.4 455.4L218.56 455.4L213.02 466.17Z" id="d30SCSpqYD"></path><path d="M441.82 489.05L443.15 489.23L444.45 489.48L445.72 489.8L446.97 490.18L448.19 490.63L449.39 491.14L450.54 491.71L451.67 492.33L452.76 493.01L453.81 493.75L454.82 494.54L455.78 495.38L456.71 496.26L457.58 497.2L458.42 498.17L459.2 499.19L459.93 500.25L460.6 501.35L461.22 502.48L461.79 503.65L462.29 504.85L462.73 506.09L463.11 507.35L463.43 508.64L463.68 509.95L463.86 511.29L463.97 512.64L464 514.02L464 514.35L463.97 514.67L463.93 514.99L463.87 515.3L463.79 515.61L463.7 515.91L463.6 516.2L463.48 516.49L463.34 516.77L463.2 517.04L463.03 517.3L462.86 517.55L462.67 517.79L462.48 518.03L462.27 518.25L462.05 518.46L461.82 518.66L461.58 518.85L461.33 519.02L461.07 519.18L460.8 519.33L460.53 519.47L460.24 519.59L459.95 519.7L459.65 519.79L459.35 519.86L459.04 519.92L458.72 519.96L458.4 519.99L458.08 520L410.67 520L410.34 519.99L410.02 519.96L409.71 519.92L409.4 519.86L409.09 519.79L408.8 519.7L408.51 519.59L408.22 519.47L407.95 519.33L407.68 519.18L407.42 519.02L407.17 518.85L406.93 518.66L406.7 518.46L406.48 518.25L406.27 518.03L406.07 517.79L405.89 517.55L405.71 517.3L405.55 517.04L405.4 516.77L405.27 516.49L405.15 516.2L405.04 515.91L404.95 515.61L404.88 515.3L404.82 514.99L404.78 514.67L404.75 514.35L404.74 514.02L404.78 512.64L404.89 511.29L405.07 509.95L405.32 508.64L405.63 507.35L406.01 506.09L406.46 504.85L406.96 503.65L407.53 502.48L408.15 501.35L408.82 500.25L409.55 499.19L410.33 498.17L411.16 497.2L412.04 496.26L412.97 495.38L413.93 494.54L414.94 493.75L415.99 493.01L417.08 492.33L418.2 491.71L419.36 491.14L420.55 490.63L421.77 490.18L423.02 489.8L424.3 489.48L425.6 489.23L426.92 489.05L428.27 488.94L429.63 488.9L439.11 488.9L440.48 488.94L441.82 489.05ZM428.9 500.9L428.16 501.01L427.4 501.19L426.62 501.45L425.83 501.78L425.02 502.18L424.2 502.65L423.37 503.2L422.51 503.83L421.65 504.52L420.76 505.29L419.86 506.13L418.95 507.05L418.02 508.04L450.73 508.04L450.23 507.15L449.67 506.3L449.04 505.5L448.36 504.75L447.63 504.06L446.84 503.43L446.01 502.85L445.13 502.35L444.21 501.91L443.25 501.54L442.26 501.25L441.24 501.03L440.19 500.9L439.11 500.86L429.63 500.86L428.9 500.9Z" id="bD77D0GkH"></path><path d="M334.44 317.79C333.73 314.93 333.34 313.35 333.26 313.03C347.42 310.64 354.71 306.38 355.03 306.19C355.79 305.74 356.26 304.93 356.33 304.05C356.38 303.17 355.99 302.3 355.3 301.75C355.21 301.67 345.63 293.73 345.63 266.23C345.63 243.03 340.22 231.27 329.56 231.27C329.4 231.27 328.13 231.27 327.98 231.27C324.13 227.53 321.24 225.89 313.48 225.89C303.41 225.89 281.33 236.05 281.33 266.23C281.33 293.73 271.76 301.67 271.69 301.72C270.98 302.26 270.57 303.12 270.62 304.01C270.67 304.91 271.15 305.72 271.91 306.18C272.24 306.37 279.45 310.65 293.7 313.04C293.62 313.36 293.23 314.94 292.52 317.79C280.2 320.88 273.36 322.6 271.99 322.94C258.56 326.31 249.18 338.37 249.18 352.28C249.18 353.77 250.39 354.97 251.86 354.97C264.19 354.97 362.78 354.97 375.1 354.97C376.58 354.97 377.78 353.76 377.78 352.27C377.78 338.37 368.4 326.31 354.97 322.94C352.23 322.26 345.39 320.54 334.44 317.79Z" id="fAtWjxrkc"></path></defs><g><g><g><use xlink:href="#d9SeZ4IE7" opacity="1" fill="#f7f9fa" fill-opacity="1"></use></g><g><g><use xlink:href="#ax5EcYMLv" opacity="1" fill="#000000" fill-opacity="1"></use><g><use xlink:href="#ax5EcYMLv" opacity="1" fill-opacity="0" stroke="#000000" stroke-width="1" stroke-opacity="0"></use></g></g><g><use xlink:href="#d30SCSpqYD" opacity="1" fill="#000000" fill-opacity="1"></use><g><use xlink:href="#d30SCSpqYD" opacity="1" fill-opacity="0" stroke="#000000" stroke-width="1" stroke-opacity="0"></use></g></g><g><use xlink:href="#bD77D0GkH" opacity="1" fill="#000000" fill-opacity="1"></use><g><use xlink:href="#bD77D0GkH" opacity="1" fill-opacity="0" stroke="#000000" stroke-width="1" stroke-opacity="0"></use></g></g><g><use xlink:href="#fAtWjxrkc" opacity="1" fill="#933ec5" fill-opacity="1"></use><g><use xlink:href="#fAtWjxrkc" opacity="1" fill-opacity="0" stroke="#000000" stroke-width="1" stroke-opacity="0"></use></g></g></g></g></g></svg>